<svg width="158" height="48" viewBox="0 0 158 48" fill="none" xmlns="http://www.w3.org/2000/svg">
<path d="M48 25.0326V12H96.697C103.654 12 110.811 14.8747 110.997 24.0744C111.19 33.6572 102.365 36.9792 98.0497 36.9153C89.0961 36.9792 69.0247 37.0687 60.3675 36.9153C51.7102 36.762 48.5153 28.9297 48 25.0326Z" fill="white" stroke="#FF5CF3"/>
<path d="M54.2634 29.135C53.6134 29.135 53.0184 28.98 52.4784 28.67C51.9384 28.36 51.5034 27.89 51.1734 27.26C50.8534 26.62 50.6934 25.82 50.6934 24.86C50.6934 24.04 50.8184 23.245 51.0684 22.475C51.3184 21.705 51.6734 21.015 52.1334 20.405C52.5934 19.785 53.1484 19.295 53.7984 18.935C54.4584 18.575 55.1934 18.395 56.0034 18.395C56.4534 18.395 56.9334 18.46 57.4434 18.59C57.9634 18.71 58.4834 18.9 59.0034 19.16L58.5534 21.485H57.8184L57.8634 19.64L58.0884 19.865C57.7384 19.715 57.3684 19.595 56.9784 19.505C56.5984 19.415 56.2534 19.37 55.9434 19.37C55.3134 19.37 54.7484 19.53 54.2484 19.85C53.7584 20.17 53.3384 20.595 52.9884 21.125C52.6484 21.655 52.3884 22.245 52.2084 22.895C52.0284 23.535 51.9384 24.175 51.9384 24.815C51.9384 25.585 52.0534 26.21 52.2834 26.69C52.5234 27.17 52.8384 27.53 53.2284 27.77C53.6284 28 54.0684 28.115 54.5484 28.115C55.0084 28.115 55.4884 28.015 55.9884 27.815C56.4884 27.605 56.9684 27.295 57.4284 26.885L57.8484 27.665C57.2784 28.155 56.6834 28.525 56.0634 28.775C55.4434 29.015 54.8434 29.135 54.2634 29.135ZM58.94 29.045L60.71 17.87L61.115 18.575L59.495 18.185L59.585 17.525L61.955 17.42L60.185 28.61L59.765 27.905L61.415 28.31L61.31 28.985L58.94 29.045ZM62.9372 29.045L64.1372 21.455L64.5572 22.175L62.9072 21.77L63.0122 21.125L65.3672 21.035L64.1672 28.625L63.7772 27.92L65.3972 28.325L65.2922 28.985L62.9372 29.045ZM65.0672 19.415C64.8472 19.415 64.6722 19.35 64.5422 19.22C64.4222 19.08 64.3622 18.895 64.3622 18.665C64.3622 18.395 64.4422 18.175 64.6022 18.005C64.7722 17.825 64.9872 17.735 65.2472 17.735C65.4672 17.735 65.6372 17.8 65.7572 17.93C65.8872 18.06 65.9522 18.245 65.9522 18.485C65.9522 18.745 65.8672 18.965 65.6972 19.145C65.5372 19.325 65.3272 19.415 65.0672 19.415ZM69.3896 29.135C68.8696 29.135 68.3996 29.025 67.9796 28.805C67.5696 28.575 67.2396 28.22 66.9896 27.74C66.7496 27.26 66.6296 26.65 66.6296 25.91C66.6296 25.21 66.7396 24.56 66.9596 23.96C67.1796 23.35 67.4796 22.82 67.8596 22.37C68.2496 21.92 68.6996 21.57 69.2096 21.32C69.7196 21.07 70.2696 20.945 70.8596 20.945C71.2096 20.945 71.5696 20.995 71.9396 21.095C72.3196 21.195 72.6946 21.355 73.0646 21.575L72.7646 23.435H71.9546L71.9696 22.025L72.0896 22.205C71.6196 21.955 71.1696 21.83 70.7396 21.83C70.3096 21.83 69.9146 21.94 69.5546 22.16C69.1946 22.38 68.8846 22.68 68.6246 23.06C68.3746 23.44 68.1746 23.87 68.0246 24.35C67.8846 24.82 67.8146 25.315 67.8146 25.835C67.8146 26.675 67.9846 27.28 68.3246 27.65C68.6746 28.02 69.1196 28.205 69.6596 28.205C69.9696 28.205 70.2996 28.15 70.6496 28.04C70.9996 27.92 71.3596 27.755 71.7296 27.545L72.0746 28.28C71.6246 28.56 71.1696 28.775 70.7096 28.925C70.2496 29.065 69.8096 29.135 69.3896 29.135ZM73.2597 29L75.0297 17.87L75.4347 18.575L73.7997 18.17L73.9047 17.51L76.2597 17.42L75.1647 24.395L74.9697 24.2H76.9497L76.6197 24.365L78.5397 21.785L78.6297 21.95L77.4897 21.77L77.5947 21.125L80.7597 21.02L80.6547 21.68L79.3347 21.935L79.7097 21.71L77.4747 24.665L77.5197 24.305L79.0347 28.265L78.8397 28.07L80.0397 28.355L79.9497 29H78.1047L76.6047 24.92L76.7847 25.04H74.8197L75.0747 24.965L74.4297 29H73.2597ZM93.335 29.045L94.16 23.81C94.24 23.38 94.245 23.025 94.175 22.745C94.115 22.465 94 22.255 93.83 22.115C93.67 21.975 93.47 21.905 93.23 21.905C92.97 21.905 92.69 21.985 92.39 22.145C92.1 22.305 91.815 22.55 91.535 22.88C91.255 23.21 91 23.625 90.77 24.125C90.55 24.625 90.385 25.215 90.275 25.895L89.795 29H88.625L89.45 23.81C89.53 23.38 89.535 23.025 89.465 22.745C89.405 22.465 89.29 22.255 89.12 22.115C88.96 21.975 88.76 21.905 88.52 21.905C88.27 21.905 87.995 21.985 87.695 22.145C87.395 22.305 87.105 22.55 86.825 22.88C86.545 23.21 86.29 23.625 86.06 24.125C85.84 24.625 85.68 25.215 85.58 25.895L85.085 29H83.915L85.055 21.8L85.52 22.175L83.885 21.77L83.99 21.125L86.3 21.035L85.745 23.975L85.385 24.545C85.655 23.675 85.995 22.98 86.405 22.46C86.815 21.93 87.25 21.545 87.71 21.305C88.17 21.065 88.6 20.945 89 20.945C89.37 20.945 89.695 21.045 89.975 21.245C90.255 21.435 90.46 21.72 90.59 22.1C90.72 22.48 90.74 22.95 90.65 23.51L90.53 24.2L90.11 24.545C90.38 23.675 90.72 22.98 91.13 22.46C91.54 21.93 91.97 21.545 92.42 21.305C92.88 21.065 93.31 20.945 93.71 20.945C94.09 20.945 94.42 21.045 94.7 21.245C94.98 21.445 95.185 21.745 95.315 22.145C95.445 22.535 95.46 23.015 95.36 23.585L94.61 28.31L94.115 27.905L95.795 28.31L95.705 28.985L93.335 29.045ZM99.7584 29.135C99.2284 29.135 98.7484 29.025 98.3184 28.805C97.8984 28.585 97.5634 28.245 97.3134 27.785C97.0634 27.315 96.9384 26.71 96.9384 25.97C96.9384 25.34 97.0334 24.725 97.2234 24.125C97.4234 23.525 97.7084 22.99 98.0784 22.52C98.4484 22.04 98.8934 21.66 99.4134 21.38C99.9334 21.09 100.523 20.945 101.183 20.945C101.923 20.945 102.498 21.115 102.908 21.455C103.318 21.795 103.523 22.235 103.523 22.775C103.523 23.225 103.378 23.625 103.088 23.975C102.808 24.325 102.423 24.62 101.933 24.86C101.453 25.1 100.913 25.285 100.313 25.415C99.7234 25.535 99.1234 25.595 98.5134 25.595C98.4134 25.595 98.3184 25.595 98.2284 25.595C98.1384 25.585 98.0434 25.575 97.9434 25.565L98.0184 24.71C98.1384 24.72 98.2584 24.73 98.3784 24.74C98.5084 24.75 98.6384 24.755 98.7684 24.755C99.1884 24.755 99.6084 24.715 100.028 24.635C100.458 24.555 100.848 24.435 101.198 24.275C101.558 24.115 101.843 23.92 102.053 23.69C102.273 23.46 102.383 23.195 102.383 22.895C102.383 22.575 102.263 22.315 102.023 22.115C101.783 21.915 101.448 21.815 101.018 21.815C100.558 21.815 100.148 21.94 99.7884 22.19C99.4284 22.43 99.1184 22.75 98.8584 23.15C98.6084 23.55 98.4184 23.995 98.2884 24.485C98.1584 24.975 98.0934 25.465 98.0934 25.955C98.0934 26.755 98.2634 27.34 98.6034 27.71C98.9534 28.08 99.4184 28.265 99.9984 28.265C100.348 28.265 100.718 28.205 101.108 28.085C101.508 27.955 101.908 27.78 102.308 27.56L102.608 28.235C102.138 28.535 101.658 28.76 101.168 28.91C100.678 29.06 100.208 29.135 99.7584 29.135ZM105.397 25.67L106.342 18.53H107.587L106.267 25.595L105.397 25.67ZM105.337 29.075C105.117 29.075 104.947 29.01 104.827 28.88C104.707 28.75 104.647 28.58 104.647 28.37C104.647 28.11 104.732 27.905 104.902 27.755C105.072 27.595 105.277 27.515 105.517 27.515C105.717 27.515 105.882 27.575 106.012 27.695C106.142 27.815 106.207 27.99 106.207 28.22C106.207 28.48 106.122 28.69 105.952 28.85C105.782 29 105.577 29.075 105.337 29.075Z" fill="#FF5CF3"/>
</svg>
