<svg width="347" height="265" viewBox="0 0 347 265" fill="none" xmlns="http://www.w3.org/2000/svg">
<path d="M101.881 53.0107C101.881 53.0107 18.9999 50.3088 18.9999 130.825C18.9999 211.341 106.099 210.542 106.099 210.542" stroke="#16254C" stroke-width="37" stroke-miterlimit="10"/>
<rect x="91" width="256" height="265" fill="#1B2F6C"/>
<path d="M329 132.014L251.578 136.331L325.283 160.461L249.377 144.565L314.276 187.05L245.088 151.999L296.779 209.779L238.999 158.088L274.05 227.276L231.565 162.377L247.461 238.283L223.331 164.578L219.014 242L214.669 164.578L190.539 238.283L206.435 162.377L163.95 227.248L199.03 158.088L141.221 209.779L192.912 151.97L123.752 187.05L188.623 144.565L112.717 160.461L186.422 136.331L109 132.014L186.422 127.669L112.717 103.539L188.623 119.435L123.752 76.95L192.912 112.03L141.221 54.2209L199.03 105.912L163.979 36.7524L206.435 101.623L190.539 25.7167L214.669 99.4217L219.014 22L223.331 99.4217L247.461 25.7167L231.565 101.623L274.05 36.7524L238.999 105.912L296.779 54.2209L245.088 112.03L314.276 76.95L249.377 119.435L325.283 103.539L251.578 127.669L329 132.014Z" fill="white"/>
</svg>
