<svg width="81" height="82" viewBox="0 0 81 82" fill="none" xmlns="http://www.w3.org/2000/svg">
<path d="M40.5 0.124512V81.105" stroke="#95B2D8" stroke-width="4" stroke-miterlimit="10"/>
<path d="M27.5724 3.40002L40.5 16.7784" stroke="#95B2D8" stroke-width="4" stroke-miterlimit="10"/>
<path d="M40.9343 63.5632L53.862 76.9612" stroke="#95B2D8" stroke-width="4" stroke-miterlimit="10"/>
<path d="M53.862 3.40002L40.9343 16.7784" stroke="#95B2D8" stroke-width="4" stroke-miterlimit="10"/>
<path d="M40.5 63.5632L27.5724 76.9612" stroke="#95B2D8" stroke-width="4" stroke-miterlimit="10"/>
<path d="M81 40.3977H0" stroke="#95B2D8" stroke-width="4" stroke-miterlimit="10"/>
<path d="M77.7236 27.4732L64.3223 40.3977" stroke="#95B2D8" stroke-width="4" stroke-miterlimit="10"/>
<path d="M17.5461 40.8318L4.14478 53.7563" stroke="#95B2D8" stroke-width="4" stroke-miterlimit="10"/>
<path d="M77.7236 53.7563L64.3223 40.8318" stroke="#95B2D8" stroke-width="4" stroke-miterlimit="10"/>
<path d="M17.5461 40.3977L4.14478 27.4732" stroke="#95B2D8" stroke-width="4" stroke-miterlimit="10"/>
<path d="M68.6645 12.1413L11.3882 69.4038" stroke="#95B2D8" stroke-width="4" stroke-miterlimit="10"/>
<path d="M57.2171 5.31403L56.8816 23.9214" stroke="#95B2D8" stroke-width="4" stroke-miterlimit="10"/>
<path d="M24.0987 57.3081L23.7632 75.9154" stroke="#95B2D8" stroke-width="4" stroke-miterlimit="10"/>
<path d="M75.8091 23.9016L57.1973 24.2371" stroke="#95B2D8" stroke-width="4" stroke-miterlimit="10"/>
<path d="M23.8026 56.9923L5.1908 57.3278" stroke="#95B2D8" stroke-width="4" stroke-miterlimit="10"/>
<path d="M68.5066 69.7393L11.25 12.4768" stroke="#95B2D8" stroke-width="4" stroke-miterlimit="10"/>
<path d="M75.3355 58.2947L56.7236 57.9592" stroke="#95B2D8" stroke-width="4" stroke-miterlimit="10"/>
<path d="M23.329 25.1843L4.71716 24.8488" stroke="#95B2D8" stroke-width="4" stroke-miterlimit="10"/>
<path d="M56.7633 76.8626L56.4277 58.2552" stroke="#95B2D8" stroke-width="4" stroke-miterlimit="10"/>
<path d="M23.6448 24.8686L23.3093 6.2612" stroke="#95B2D8" stroke-width="4" stroke-miterlimit="10"/>
</svg>
