<svg width="77" height="126" viewBox="0 0 77 126" fill="none" xmlns="http://www.w3.org/2000/svg">
<path d="M25.0399 31.9755C32.2137 28.803 35.4581 20.4171 32.2863 13.245C29.1146 6.07292 20.7279 2.83059 13.5541 6.00308C6.38024 9.17556 3.13589 17.5615 6.30761 24.7336C9.47933 31.9057 17.8661 35.148 25.0399 31.9755Z" fill="#394894"/>
<path d="M37.9663 61.2054C45.1401 58.033 48.3844 49.647 45.2127 42.4749C42.041 35.3028 33.6543 32.0605 26.4805 35.233C19.3066 38.4055 16.0623 46.7914 19.234 53.9635C22.4057 61.1356 30.7924 64.3779 37.9663 61.2054Z" fill="#394894"/>
<path d="M50.8927 90.4354C58.0665 87.2629 61.3108 78.8769 58.1391 71.7048C54.9674 64.5327 46.5807 61.2904 39.4068 64.4629C32.233 67.6354 28.9887 76.0213 32.1604 83.1934C35.3321 90.3655 43.7188 93.6079 50.8927 90.4354Z" fill="#394894"/>
<path d="M63.8191 119.665C70.9929 116.493 74.2372 108.107 71.0655 100.935C67.8938 93.7627 59.5071 90.5204 52.3332 93.6929C45.1594 96.8653 41.9151 105.251 45.0868 112.423C48.2585 119.595 56.6452 122.838 63.8191 119.665Z" fill="#394894"/>
</svg>
