<svg width="44" height="127" viewBox="0 0 44 127" fill="none" xmlns="http://www.w3.org/2000/svg">
<path d="M25.6054 29.8982C33.3927 30.8397 40.4686 25.2915 41.4099 17.5061C42.3511 9.7207 36.8013 2.64616 29.014 1.70469C21.2267 0.763215 14.1508 6.31133 13.2095 14.0968C12.2683 21.8822 17.8181 28.9567 25.6054 29.8982Z" fill="#128D3B"/>
<path d="M21.7695 61.6277C29.5568 62.5692 36.6327 57.0211 37.5739 49.2357C38.5152 41.4503 32.9653 34.3757 25.178 33.4342C17.3907 32.4928 10.3149 38.0409 9.37361 45.8263C8.43236 53.6117 13.9822 60.6863 21.7695 61.6277Z" fill="#128D3B"/>
<path d="M17.9333 93.3573C25.7206 94.2988 32.7965 88.7507 33.7377 80.9652C34.679 73.1798 29.1292 66.1053 21.3419 65.1638C13.5546 64.2223 6.47867 69.7704 5.53742 77.5559C4.59618 85.3413 10.146 92.4158 17.9333 93.3573Z" fill="#128D3B"/>
<path d="M14.1001 125.063C21.8874 126.005 28.9632 120.456 29.9045 112.671C30.8457 104.886 25.2959 97.8111 17.5086 96.8696C9.72131 95.9281 2.64542 101.476 1.70417 109.262C0.762927 117.047 6.31276 124.122 14.1001 125.063Z" fill="#128D3B"/>
</svg>
