<svg width="113" height="123" viewBox="0 0 113 123" fill="none" xmlns="http://www.w3.org/2000/svg">
<path d="M80.5534 33.5433C87.0002 39.1783 96.7933 38.5216 102.427 32.0764C108.061 25.6312 107.402 15.8382 100.955 10.2032C94.5081 4.56812 84.715 5.22485 79.0813 11.67C73.4476 18.1152 74.1067 27.9082 80.5534 33.5433Z" fill="#E4BAD3"/>
<path d="M57.5932 59.8107C64.04 65.4457 73.8331 64.789 79.4668 58.3438C85.1005 51.8986 84.4414 42.1056 77.9946 36.4706C71.5479 30.8355 61.7548 31.4922 56.1211 37.9374C50.4874 44.3826 51.1465 54.1756 57.5932 59.8107Z" fill="#E4BAD3"/>
<path d="M34.633 86.0781C41.0798 91.7132 50.8729 91.0564 56.5066 84.6112C62.1403 78.1661 61.4812 68.3731 55.0344 62.738C48.5877 57.103 38.7946 57.7597 33.1609 64.2049C27.5272 70.6501 28.1863 80.4431 34.633 86.0781Z" fill="#E4BAD3"/>
<path d="M11.6728 112.345C18.1196 117.981 27.9127 117.324 33.5464 110.879C39.1801 104.433 38.521 94.6404 32.0742 89.0054C25.6275 83.3703 15.8344 84.0271 10.2007 90.4723C4.56696 96.9174 5.22608 106.71 11.6728 112.345Z" fill="#E4BAD3"/>
</svg>
