<svg width="521" height="367" viewBox="0 0 521 367" fill="none" xmlns="http://www.w3.org/2000/svg">
<path d="M97.0591 44.929L42.5926 155.161" stroke="#0D552E" stroke-width="29" stroke-miterlimit="10"/>
<path d="M181.271 29.5459L88.1062 52.0709" stroke="#0D552E" stroke-width="29" stroke-miterlimit="10"/>
<path d="M430.85 153.469L376.384 263.701" stroke="#0D552E" stroke-width="29" stroke-miterlimit="10"/>
<path d="M515.062 138.086L421.897 160.611" stroke="#0D552E" stroke-width="29" stroke-miterlimit="10"/>
<path d="M86.9622 273.974C128.156 284.268 170.054 258.58 180.544 216.598C191.035 174.617 166.145 132.24 124.951 121.946C83.7575 111.653 41.8594 137.341 31.3691 179.322C20.8787 221.303 45.7686 263.681 86.9622 273.974Z" stroke="#1B6133" stroke-width="29" stroke-miterlimit="10"/>
<path d="M282.401 322.811C323.595 333.104 365.332 308.063 375.623 266.879C385.914 225.696 360.862 183.965 319.668 173.671C278.475 163.378 236.738 188.419 226.447 229.603C216.156 270.787 241.208 312.517 282.401 322.811Z" stroke="#1B6133" stroke-width="29" stroke-miterlimit="10"/>
<path d="M180.184 218.043L219.203 227.793" stroke="#1B6133" stroke-width="29" stroke-miterlimit="10"/>
<path d="M43.5377 183.369L35.5398 183.517L37.7174 191.194L31.9649 185.662L28.041 192.64L27.8919 184.644L20.2131 186.82L25.7461 181.07L18.7581 177.177L26.7637 176.998L24.5861 169.32L30.3386 174.853L34.2315 167.867L34.4116 175.871L42.0904 173.694L36.5574 179.445L43.5377 183.369Z" fill="white"/>
<path d="M388.09 269.466L380.123 269.622L382.301 277.3L376.548 271.767L372.624 278.745L372.475 270.749L364.796 272.926L370.329 267.175L363.341 263.282L371.347 263.103L369.169 255.425L374.922 260.958L378.815 253.972L378.995 261.976L386.674 259.799L381.141 265.55L388.09 269.466Z" fill="white"/>
<path d="M505.146 146.572L497.179 146.728L499.326 154.398L493.573 148.865L489.68 155.851L489.531 147.855L481.821 150.024L487.354 144.273L480.397 140.388L488.372 140.201L486.194 132.524L491.978 138.064L495.863 131.109L496.02 139.074L503.699 136.898L498.197 142.656L505.146 146.572Z" fill="white"/>
</svg>
