<svg width="93" height="93" viewBox="0 0 93 93" fill="none" xmlns="http://www.w3.org/2000/svg">
<path d="M46.4886 0V93.0002" stroke="#85BEE3" stroke-width="6" stroke-miterlimit="10"/>
<path d="M31.6422 3.76167L46.4887 19.1484" stroke="#85BEE3" stroke-width="6" stroke-miterlimit="10"/>
<path d="M46.9873 72.8547L61.8337 88.2414" stroke="#85BEE3" stroke-width="6" stroke-miterlimit="10"/>
<path d="M61.8337 3.76167L46.9873 19.1484" stroke="#85BEE3" stroke-width="6" stroke-miterlimit="10"/>
<path d="M46.4887 72.8547L31.6422 88.2414" stroke="#85BEE3" stroke-width="6" stroke-miterlimit="10"/>
<path d="M93 46.2508H0" stroke="#85BEE3" stroke-width="6" stroke-miterlimit="10"/>
<path d="M89.2601 31.408L73.8696 46.2508" stroke="#85BEE3" stroke-width="6" stroke-miterlimit="10"/>
<path d="M20.1276 46.7494L4.73718 61.5922" stroke="#85BEE3" stroke-width="6" stroke-miterlimit="10"/>
<path d="M89.2601 61.5922L73.8696 46.7494" stroke="#85BEE3" stroke-width="6" stroke-miterlimit="10"/>
<path d="M20.1276 46.2508L4.73718 31.408" stroke="#85BEE3" stroke-width="6" stroke-miterlimit="10"/>
<path d="M78.8562 13.8005L13.0785 79.5623" stroke="#85BEE3" stroke-width="6" stroke-miterlimit="10"/>
<path d="M65.7095 5.95981L65.3242 27.329" stroke="#85BEE3" stroke-width="6" stroke-miterlimit="10"/>
<path d="M27.6756 65.6712L27.2903 87.0404" stroke="#85BEE3" stroke-width="6" stroke-miterlimit="10"/>
<path d="M87.0387 27.3063L65.6643 27.6916" stroke="#85BEE3" stroke-width="6" stroke-miterlimit="10"/>
<path d="M27.3128 65.3313L5.93848 65.6938" stroke="#85BEE3" stroke-width="6" stroke-miterlimit="10"/>
<path d="M78.6748 79.9476L12.8971 14.1857" stroke="#85BEE3" stroke-width="6" stroke-miterlimit="10"/>
<path d="M86.5174 66.8043L65.1431 66.419" stroke="#85BEE3" stroke-width="6" stroke-miterlimit="10"/>
<path d="M26.7916 28.7793L5.41724 28.3941" stroke="#85BEE3" stroke-width="6" stroke-miterlimit="10"/>
<path d="M65.1658 88.1508L64.7805 66.7589" stroke="#85BEE3" stroke-width="6" stroke-miterlimit="10"/>
<path d="M27.1316 28.4167L26.7689 7.04753" stroke="#85BEE3" stroke-width="6" stroke-miterlimit="10"/>
</svg>
