<svg width="108" height="135" viewBox="0 0 108 135" fill="none" xmlns="http://www.w3.org/2000/svg">
<path d="M0 13.2503C5.11731 9.56359 21.2718 -1.06408 43.7217 0.0866367C48.3163 0.321178 60.561 1.42793 73.7114 8.9699C95.1526 21.2687 102.7 41.3366 104.121 45.3385C105.704 49.8094 113.884 74.363 100.263 99.7008C99.1728 101.731 83.6662 129.414 50.6651 134.288C29.9823 137.345 13.8867 129.751 8.20244 126.724C12.3699 125.962 34.437 121.513 47.6021 101.035C55.5542 88.67 56.4524 76.3786 56.4377 70.5077C56.4304 67.0409 56.0033 44.327 37.2055 27.6892C22.1701 14.379 4.89642 13.3676 0 13.2503Z" fill="#BC71D6"/>
</svg>
