<svg width="90" height="36" viewBox="0 0 90 36" fill="none" xmlns="http://www.w3.org/2000/svg">
<path d="M4 18.7244V1H66.6104C75.5547 1.00003 84.7575 4.90958 84.996 17.4211C85.2444 30.4538 73.8984 34.9717 68.3496 34.8849C56.8379 34.9717 31.0318 35.0934 19.9011 34.8849C8.77032 34.6763 4.66254 24.0243 4 18.7244Z" fill="white" stroke="#FF5CF3"/>
<path d="M15.316 24.162C14.536 24.162 13.822 23.976 13.174 23.604C12.526 23.232 12.004 22.668 11.608 21.912C11.224 21.144 11.032 20.184 11.032 19.032C11.032 18.048 11.182 17.094 11.482 16.17C11.782 15.246 12.208 14.418 12.76 13.686C13.312 12.942 13.978 12.354 14.758 11.922C15.55 11.49 16.432 11.274 17.404 11.274C17.944 11.274 18.52 11.352 19.132 11.508C19.756 11.652 20.38 11.88 21.004 12.192L20.464 14.982H19.582L19.636 12.768L19.906 13.038C19.486 12.858 19.042 12.714 18.574 12.606C18.118 12.498 17.704 12.444 17.332 12.444C16.576 12.444 15.898 12.636 15.298 13.02C14.71 13.404 14.206 13.914 13.786 14.55C13.378 15.186 13.066 15.894 12.85 16.674C12.634 17.442 12.526 18.21 12.526 18.978C12.526 19.902 12.664 20.652 12.94 21.228C13.228 21.804 13.606 22.236 14.074 22.524C14.554 22.8 15.082 22.938 15.658 22.938C16.21 22.938 16.786 22.818 17.386 22.578C17.986 22.326 18.562 21.954 19.114 21.462L19.618 22.398C18.934 22.986 18.22 23.43 17.476 23.73C16.732 24.018 16.012 24.162 15.316 24.162ZM20.928 24.054L23.052 10.644L23.538 11.49L21.594 11.022L21.702 10.23L24.546 10.104L22.422 23.532L21.918 22.686L23.898 23.172L23.772 23.982L20.928 24.054ZM25.7247 24.054L27.1647 14.946L27.6687 15.81L25.6887 15.324L25.8147 14.55L28.6407 14.442L27.2007 23.55L26.7327 22.704L28.6767 23.19L28.5507 23.982L25.7247 24.054ZM28.2807 12.498C28.0167 12.498 27.8067 12.42 27.6507 12.264C27.5067 12.096 27.4347 11.874 27.4347 11.598C27.4347 11.274 27.5307 11.01 27.7227 10.806C27.9267 10.59 28.1847 10.482 28.4967 10.482C28.7607 10.482 28.9647 10.56 29.1087 10.716C29.2647 10.872 29.3427 11.094 29.3427 11.382C29.3427 11.694 29.2407 11.958 29.0367 12.174C28.8447 12.39 28.5927 12.498 28.2807 12.498ZM33.4675 24.162C32.8435 24.162 32.2795 24.03 31.7755 23.766C31.2835 23.49 30.8875 23.064 30.5875 22.488C30.2995 21.912 30.1555 21.18 30.1555 20.292C30.1555 19.452 30.2875 18.672 30.5515 17.952C30.8155 17.22 31.1755 16.584 31.6315 16.044C32.0995 15.504 32.6395 15.084 33.2515 14.784C33.8635 14.484 34.5235 14.334 35.2315 14.334C35.6515 14.334 36.0835 14.394 36.5275 14.514C36.9835 14.634 37.4335 14.826 37.8775 15.09L37.5175 17.322H36.5455L36.5635 15.63L36.7075 15.846C36.1435 15.546 35.6035 15.396 35.0875 15.396C34.5715 15.396 34.0975 15.528 33.6655 15.792C33.2335 16.056 32.8615 16.416 32.5495 16.872C32.2495 17.328 32.0095 17.844 31.8295 18.42C31.6615 18.984 31.5775 19.578 31.5775 20.202C31.5775 21.21 31.7815 21.936 32.1895 22.38C32.6095 22.824 33.1435 23.046 33.7915 23.046C34.1635 23.046 34.5595 22.98 34.9795 22.848C35.3995 22.704 35.8315 22.506 36.2755 22.254L36.6895 23.136C36.1495 23.472 35.6035 23.73 35.0515 23.91C34.4995 24.078 33.9715 24.162 33.4675 24.162ZM38.1116 24L40.2356 10.644L40.7216 11.49L38.7596 11.004L38.8856 10.212L41.7116 10.104L40.3976 18.474L40.1636 18.24H42.5396L42.1436 18.438L44.4476 15.342L44.5556 15.54L43.1876 15.324L43.3136 14.55L47.1116 14.424L46.9856 15.216L45.4016 15.522L45.8516 15.252L43.1696 18.798L43.2236 18.366L45.0416 23.118L44.8076 22.884L46.2476 23.226L46.1396 24H43.9256L42.1256 19.104L42.3416 19.248H39.9836L40.2896 19.158L39.5156 24H38.1116ZM62.202 24.054L63.192 17.772C63.288 17.256 63.294 16.83 63.21 16.494C63.138 16.158 63 15.906 62.796 15.738C62.604 15.57 62.364 15.486 62.076 15.486C61.764 15.486 61.428 15.582 61.068 15.774C60.72 15.966 60.378 16.26 60.042 16.656C59.706 17.052 59.4 17.55 59.124 18.15C58.86 18.75 58.662 19.458 58.53 20.274L57.954 24H56.55L57.54 17.772C57.636 17.256 57.642 16.83 57.558 16.494C57.486 16.158 57.348 15.906 57.144 15.738C56.952 15.57 56.712 15.486 56.424 15.486C56.124 15.486 55.794 15.582 55.434 15.774C55.074 15.966 54.726 16.26 54.39 16.656C54.054 17.052 53.748 17.55 53.472 18.15C53.208 18.75 53.016 19.458 52.896 20.274L52.302 24H50.898L52.266 15.36L52.824 15.81L50.862 15.324L50.988 14.55L53.76 14.442L53.094 17.97L52.662 18.654C52.986 17.61 53.394 16.776 53.886 16.152C54.378 15.516 54.9 15.054 55.452 14.766C56.004 14.478 56.52 14.334 57 14.334C57.444 14.334 57.834 14.454 58.17 14.694C58.506 14.922 58.752 15.264 58.908 15.72C59.064 16.176 59.088 16.74 58.98 17.412L58.836 18.24L58.332 18.654C58.656 17.61 59.064 16.776 59.556 16.152C60.048 15.516 60.564 15.054 61.104 14.766C61.656 14.478 62.172 14.334 62.652 14.334C63.108 14.334 63.504 14.454 63.84 14.694C64.176 14.934 64.422 15.294 64.578 15.774C64.734 16.242 64.752 16.818 64.632 17.502L63.732 23.172L63.138 22.686L65.154 23.172L65.046 23.982L62.202 24.054ZM69.91 24.162C69.274 24.162 68.698 24.03 68.182 23.766C67.678 23.502 67.276 23.094 66.976 22.542C66.676 21.978 66.526 21.252 66.526 20.364C66.526 19.608 66.64 18.87 66.868 18.15C67.108 17.43 67.45 16.788 67.894 16.224C68.338 15.648 68.872 15.192 69.496 14.856C70.12 14.508 70.828 14.334 71.62 14.334C72.508 14.334 73.198 14.538 73.69 14.946C74.182 15.354 74.428 15.882 74.428 16.53C74.428 17.07 74.254 17.55 73.906 17.97C73.57 18.39 73.108 18.744 72.52 19.032C71.944 19.32 71.296 19.542 70.576 19.698C69.868 19.842 69.148 19.914 68.416 19.914C68.296 19.914 68.182 19.914 68.074 19.914C67.966 19.902 67.852 19.89 67.732 19.878L67.822 18.852C67.966 18.864 68.11 18.876 68.254 18.888C68.41 18.9 68.566 18.906 68.722 18.906C69.226 18.906 69.73 18.858 70.234 18.762C70.75 18.666 71.218 18.522 71.638 18.33C72.07 18.138 72.412 17.904 72.664 17.628C72.928 17.352 73.06 17.034 73.06 16.674C73.06 16.29 72.916 15.978 72.628 15.738C72.34 15.498 71.938 15.378 71.422 15.378C70.87 15.378 70.378 15.528 69.946 15.828C69.514 16.116 69.142 16.5 68.83 16.98C68.53 17.46 68.302 17.994 68.146 18.582C67.99 19.17 67.912 19.758 67.912 20.346C67.912 21.306 68.116 22.008 68.524 22.452C68.944 22.896 69.502 23.118 70.198 23.118C70.618 23.118 71.062 23.046 71.53 22.902C72.01 22.746 72.49 22.536 72.97 22.272L73.33 23.082C72.766 23.442 72.19 23.712 71.602 23.892C71.014 24.072 70.45 24.162 69.91 24.162ZM76.6768 20.004L77.8108 11.436H79.3048L77.7208 19.914L76.6768 20.004ZM76.6048 24.09C76.3408 24.09 76.1368 24.012 75.9928 23.856C75.8488 23.7 75.7768 23.496 75.7768 23.244C75.7768 22.932 75.8788 22.686 76.0828 22.506C76.2868 22.314 76.5328 22.218 76.8208 22.218C77.0608 22.218 77.2588 22.29 77.4148 22.434C77.5708 22.578 77.6488 22.788 77.6488 23.064C77.6488 23.376 77.5468 23.628 77.3428 23.82C77.1388 24 76.8928 24.09 76.6048 24.09Z" fill="#FF5CF3"/>
</svg>
