<svg width="152" height="510" viewBox="0 0 152 510" fill="none" xmlns="http://www.w3.org/2000/svg">
<path d="M152 75.9817C152 117.954 117.982 151.963 76.0001 151.963C71.8128 151.963 67.7077 151.635 63.712 150.978C27.5867 145.096 0 113.767 0 75.9817C0 34.0098 34.0181 0 76.0001 0C117.982 0.0273611 152 34.0372 152 75.9817Z" fill="#AEA656"/>
<path d="M53.5586 509.655L63.7121 150.978H88.2334L99.2353 509.655H53.5586Z" fill="#AEA656"/>
<path d="M92.5574 485.467L82.7871 488.121L87.8229 496.877L79.0378 491.87L76.383 501.61L73.7558 491.87L64.9708 496.877L69.9791 488.121L60.2362 485.467L69.9791 482.813L64.9708 474.031L73.7558 479.065L76.383 469.297L79.0378 479.065L87.8229 474.031L82.7871 482.813L92.5574 485.467Z" fill="white"/>
</svg>
